<svg width="36" height="40" viewBox="0 0 36 40" fill="none" xmlns="http://www.w3.org/2000/svg">
<rect x="6" y="6" width="24" height="27" fill="white"/>
<path d="M0.014708 0.0941322C0.0235329 0.147081 0.747169 8.24533 1.62377 18.0909C2.50037 27.9365 3.21812 35.9935 3.22106 35.9965C3.224 35.9994 6.46272 36.9025 10.4221 37.9997L17.6202 40L24.836 37.9997C28.8042 36.8995 32.0547 35.9965 32.0547 35.9935C32.0577 35.9935 32.7754 27.9423 33.652 18.1056C34.5286 8.26886 35.2522 0.170614 35.2611 0.10884L35.2787 0H0L0.014708 0.0941322ZM28.6836 7.41874C28.6836 7.48345 28.4748 9.8338 27.2452 23.6035C26.9393 27.0304 26.6774 29.8456 26.6627 29.8573C26.6304 29.8867 17.6997 32.3577 17.6291 32.3577C17.5732 32.3577 8.59832 29.875 8.57773 29.8514C8.57185 29.8456 8.43359 28.3395 8.2718 26.5039C8.10707 24.6683 7.96882 23.1093 7.95705 23.0387L7.94234 22.9151H10.1633C11.387 22.9151 12.3871 22.9181 12.3901 22.921C12.3901 22.9269 12.4607 23.7153 12.5489 24.6742C12.6342 25.6361 12.7107 26.4245 12.7166 26.4304C12.7225 26.4362 13.8256 26.7392 15.1728 27.101L17.6173 27.7629L20.0677 27.101C21.4179 26.7363 22.5268 26.4333 22.5327 26.4304C22.5445 26.4156 23.0328 20.9678 23.0357 20.8178V20.7089H7.73937V20.6354C7.73937 20.5942 7.65407 19.6029 7.54817 18.4351C7.44227 17.2672 7.35696 16.3083 7.35696 16.3024C7.35696 16.2995 10.9781 16.2965 15.4023 16.2965H23.4476V16.223C23.4476 16.1847 23.5329 15.1846 23.6388 14.0079C23.7447 12.8284 23.83 11.84 23.83 11.8135C23.83 11.7694 23.1799 11.7664 15.3964 11.7606L6.95985 11.7517L6.78041 9.75143C6.68039 8.65127 6.5892 7.66289 6.57744 7.55111L6.55979 7.35402H28.6836V7.41874Z" fill="#B69121"/>
</svg>
