<svg width="42" height="40" viewBox="0 0 42 40" fill="none" xmlns="http://www.w3.org/2000/svg">
<path d="M20.4797 0C9.17053 0 0 9.16893 0 20.4797C0 29.5283 5.86805 37.2049 14.0053 39.913C15.0288 40.1025 15.4046 39.4687 15.4046 38.9277C15.4046 38.4395 15.3855 36.826 15.3768 35.1148C9.67921 36.3537 8.47698 32.6985 8.47698 32.6985C7.54539 30.3313 6.2031 29.702 6.2031 29.702C4.34506 28.4308 6.34316 28.4568 6.34316 28.4568C8.39972 28.6014 9.48261 30.5674 9.48261 30.5674C11.3092 33.6983 14.2736 32.7931 15.4422 32.2699C15.626 30.9461 16.1568 30.0428 16.7424 29.5314C12.1937 29.0134 7.41176 27.2573 7.41176 19.4101C7.41176 17.1743 8.2118 15.3473 9.52197 13.9131C9.30931 13.3972 8.60837 11.3143 9.72033 8.49336C9.72033 8.49336 11.4401 7.94292 15.3537 10.5927C16.9872 10.1387 18.7392 9.91131 20.4797 9.9036C22.2202 9.91131 23.9735 10.1387 25.6102 10.5927C29.5192 7.94292 31.2365 8.49336 31.2365 8.49336C32.3512 11.3143 31.6499 13.3972 31.4373 13.9131C32.7503 15.3473 33.5449 17.1742 33.5449 19.4101C33.5449 27.276 28.754 29.0081 24.1937 29.515C24.9282 30.1506 25.5827 31.397 25.5827 33.3075C25.5827 36.0477 25.559 38.2531 25.559 38.9277C25.559 39.4727 25.9276 40.1113 26.9658 39.9102C35.0986 37.1992 40.9592 29.5253 40.9592 20.4797C40.9592 9.16893 31.79 0 20.4797 0Z" fill="#B69121"/>
<path d="M7.67059 29.1738C7.62562 29.2755 7.46532 29.306 7.31964 29.2363C7.17107 29.1695 7.08755 29.0307 7.13573 28.9286C7.1799 28.8239 7.3402 28.7946 7.48845 28.865C7.63734 28.9316 7.72215 29.0717 7.67059 29.1738ZM8.67799 30.0727C8.58034 30.1633 8.38936 30.1212 8.25974 29.9781C8.12579 29.8353 8.10073 29.6445 8.19983 29.5524C8.30054 29.462 8.48573 29.5042 8.62001 29.6472C8.75397 29.7916 8.77999 29.9813 8.67783 30.0728M9.36914 31.2227C9.24353 31.3099 9.03826 31.2282 8.91153 31.046C8.78609 30.864 8.78609 30.6456 8.91426 30.5581C9.04147 30.4705 9.24353 30.5492 9.37203 30.7299C9.49731 30.9151 9.49731 31.1336 9.36898 31.2229M10.5378 32.5547C10.4255 32.6784 10.1865 32.6453 10.0115 32.4763C9.83252 32.3112 9.78257 32.0769 9.89516 31.953C10.0087 31.829 10.2492 31.8639 10.4255 32.0314C10.6033 32.1962 10.6575 32.4323 10.5378 32.5547ZM12.0483 33.0044C11.9989 33.1647 11.7686 33.2377 11.5367 33.1696C11.3051 33.0994 11.1535 32.9114 11.2002 32.7494C11.2484 32.588 11.4797 32.512 11.7134 32.5849C11.9447 32.6548 12.0964 32.8413 12.0483 33.0044ZM13.7675 33.1951C13.7733 33.3641 13.5765 33.5041 13.333 33.5072C13.0881 33.5125 12.8901 33.3758 12.8875 33.2097C12.8875 33.0391 13.0798 32.9004 13.3245 32.8963C13.568 32.8915 13.7675 33.0272 13.7675 33.1951ZM15.4563 33.1304C15.4855 33.2952 15.3162 33.4645 15.0745 33.5094C14.8368 33.5528 14.6167 33.4511 14.5864 33.2878C14.5568 33.1188 14.7293 32.9497 14.9665 32.9058C15.2088 32.8637 15.4254 32.9628 15.4563 33.1304Z" fill="#B69121"/>
</svg>
