<svg width="36" height="40" viewBox="0 0 36 40" fill="none" xmlns="http://www.w3.org/2000/svg">
<path d="M3.20968 36.0015L0 0H35.2699L32.0567 35.9958L17.6133 40L3.20968 36.0015Z" fill="#B69121"/>
<path d="M17.6343 16.2961H11.7915L11.388 11.7746H17.6343V7.35913H6.5625L6.66819 8.54373L7.75342 20.7115H17.6343V16.2961ZM17.6343 27.7634L17.6151 27.7686L12.6975 26.4408L12.3831 22.9193H7.9507L8.56931 29.8521L17.614 32.363L17.6343 32.3573V27.7634Z" fill="white"/>
<path d="M17.6191 16.2961V20.7115H23.0562L22.5436 26.4379L17.6191 27.7671V32.3608L26.6709 29.8521L26.7373 29.1061L27.7749 17.4817L27.8826 16.2961H26.6928H17.6191ZM17.6191 7.35913V11.7746H28.2844L28.373 10.7822L28.5742 8.54373L28.6798 7.35913H17.6191Z" fill="white"/>
</svg>
