<svg width="46" height="40" viewBox="0 0 46 40" fill="none" xmlns="http://www.w3.org/2000/svg">
<path d="M45.0064 20.0046C45.0064 17.0291 41.2802 14.2092 35.5672 12.4606C36.8856 6.6377 36.2997 2.00505 33.7177 0.521863C33.1226 0.173954 32.4269 0.009151 31.667 0.009151V2.05083C32.0881 2.05083 32.4269 2.13323 32.7106 2.28886C33.9558 3.00298 34.4961 5.72215 34.0747 9.21952C33.9742 10.0801 33.8094 10.9865 33.608 11.9112C31.8133 11.4718 29.8541 11.133 27.7942 10.9133C26.5583 9.21952 25.2765 7.68141 23.9855 6.33557C26.9702 3.56147 29.7718 2.04166 31.6762 2.04166V0C29.1583 0 25.8624 1.79447 22.5299 4.90731C19.1972 1.81277 15.9013 0.0366253 13.3836 0.0366253V2.07828C15.2788 2.07828 18.0894 3.58894 21.0741 6.34472C19.7923 7.69058 18.5105 9.21952 17.2928 10.9133C15.2237 11.133 13.2645 11.4718 11.4701 11.9204C11.2594 11.0048 11.1038 10.1167 10.9939 9.2653C10.5638 5.76793 11.0946 3.04876 12.3307 2.32549C12.6053 2.16068 12.9623 2.08745 13.3836 2.08745V0.0457763C12.6145 0.0457763 11.9186 0.21058 11.3145 0.558489C8.74171 2.04166 8.165 6.66516 9.49243 12.4697C3.79779 14.2276 0.0898438 17.0383 0.0898438 20.0046C0.0898438 22.9802 3.8161 25.8001 9.52908 27.5487C8.21065 33.3716 8.79657 38.0041 11.3786 39.4874C11.9737 39.8352 12.6693 40 13.4385 40C15.9562 40 19.2523 38.2056 22.5848 35.0928C25.9173 38.1874 29.2133 39.9636 31.731 39.9636C32.5 39.9636 33.1959 39.7988 33.8002 39.4507C36.3728 37.9675 36.9497 33.344 35.622 27.5396C41.2984 25.7909 45.0064 22.971 45.0064 20.0046ZM33.0861 13.8979C32.7473 15.0791 32.3262 16.2966 31.85 17.5143C31.4747 16.782 31.081 16.0495 30.6507 15.317C30.2296 14.5846 29.7808 13.8705 29.3323 13.1747C30.6323 13.3669 31.8866 13.605 33.0861 13.8979ZM28.8927 23.6484C28.1787 24.8846 27.4464 26.0564 26.6864 27.146C25.3221 27.2649 23.9398 27.329 22.5481 27.329C21.1656 27.329 19.7831 27.2649 18.4282 27.155C17.6683 26.0654 16.9266 24.9028 16.2125 23.6759C15.5167 22.4766 14.8851 21.2589 14.3082 20.0322C14.8759 18.8053 15.5167 17.5784 16.2035 16.3791C16.9176 15.1432 17.6499 13.9712 18.4098 12.8817C19.7741 12.7627 21.1564 12.6986 22.5481 12.6986C23.9306 12.6986 25.3131 12.7627 26.668 12.8725C27.4279 13.962 28.1697 15.1247 28.8837 16.3517C29.5796 17.5509 30.2112 18.7686 30.7881 19.9955C30.2112 21.2223 29.5796 22.4492 28.8927 23.6484ZM31.85 22.4584C32.3306 23.6515 32.7523 24.8675 33.1136 26.1021C31.9141 26.395 30.6507 26.6423 29.3415 26.8346C29.7901 26.1297 30.2386 25.4064 30.6599 24.6647C31.081 23.9324 31.4747 23.1907 31.85 22.4584ZM22.5663 32.2272C21.7149 31.3481 20.8634 30.3685 20.0212 29.2974C20.8452 29.3341 21.6875 29.3615 22.5389 29.3615C23.3996 29.3615 24.251 29.3433 25.0843 29.2974C24.2984 30.3187 23.4578 31.2967 22.5663 32.2272ZM15.7548 26.8346C14.4548 26.6423 13.2004 26.4042 12.0011 26.1113C12.3397 24.9302 12.7611 23.7125 13.237 22.4948C13.6125 23.2273 14.0062 23.9598 14.4363 24.6921C14.8667 25.4246 15.3062 26.1387 15.7548 26.8346ZM22.5207 7.78213C23.3721 8.66104 24.2236 9.64068 25.0658 10.7119C24.2418 10.6752 23.3996 10.6478 22.5481 10.6478C21.6875 10.6478 20.836 10.6661 20.003 10.7119C20.7888 9.69063 21.6293 8.71262 22.5207 7.78213ZM15.7455 13.1747C15.297 13.8796 14.8484 14.6029 14.4273 15.3444C14.0062 16.0769 13.6125 16.8094 13.237 17.5417C12.7564 16.3486 12.3348 15.1325 11.9737 13.8979C13.173 13.6141 14.4363 13.3669 15.7455 13.1747ZM7.45993 24.6373C4.21895 23.2548 2.12235 21.4421 2.12235 20.0046C2.12235 18.5672 4.21895 16.7453 7.45993 15.372C8.2473 15.0332 9.10796 14.7311 9.99605 14.4473C10.5179 16.2417 11.2045 18.1094 12.056 20.023C11.2138 21.9273 10.5361 23.7858 10.0235 25.5712C9.11717 25.2873 8.25651 24.9761 7.45993 24.6373ZM12.3856 37.7204C11.1405 37.0063 10.6002 34.2872 11.0215 30.7897C11.1222 29.9292 11.2868 29.0227 11.4883 28.0979C13.2829 28.5375 15.2421 28.8763 17.3021 29.096C18.538 30.7897 19.8198 32.3277 21.1108 33.6736C18.1261 36.4478 15.3244 37.9675 13.4201 37.9675C13.0082 37.9585 12.6603 37.876 12.3856 37.7204ZM34.1024 30.744C34.5325 34.2413 34.0016 36.9605 32.7655 37.6837C32.491 37.8486 32.1339 37.9218 31.7126 37.9218C29.8175 37.9218 27.0068 36.4112 24.0221 33.6554C25.3039 32.3095 26.5857 30.7806 27.8034 29.0867C29.8726 28.8671 31.8318 28.5283 33.6262 28.0797C33.8368 29.0045 34.0016 29.8925 34.1024 30.744ZM37.6271 24.6373C36.8397 24.9761 35.9791 25.2783 35.091 25.562C34.5691 23.7676 33.8825 21.8999 33.031 19.9863C33.8735 18.082 34.5509 16.2235 35.0636 14.4381C35.9701 14.7219 36.8305 15.0332 37.6363 15.372C40.8773 16.7543 42.9739 18.5672 42.9739 20.0046C42.9647 21.4421 40.8681 23.264 37.6271 24.6373Z" fill="#B69121"/>
<path d="M22.5384 24.1887C24.8494 24.1887 26.7226 22.3155 26.7226 20.0046C26.7226 17.6938 24.8494 15.8206 22.5384 15.8206C20.2277 15.8206 18.3545 17.6938 18.3545 20.0046C18.3545 22.3155 20.2277 24.1887 22.5384 24.1887Z" fill="#B69121"/>
</svg>
