<svg width="46" height="40" viewBox="0 0 46 40" fill="none" xmlns="http://www.w3.org/2000/svg">
<path d="M26.1 12.6V33.55C26.1 35.05 26.3333 36.1667 26.8 36.9C27.2667 37.6 28.1 37.95 29.3 37.95V39C28.2667 38.9 27.2333 38.85 26.2 38.85C24.8 38.85 23.5 38.9 22.3 39C21.1 39.1 19.9667 39.2833 18.9 39.55V35.05C18.1 36.7167 16.9833 37.9167 15.55 38.65C14.15 39.35 12.5833 39.7 10.85 39.7C9.45 39.7 8.31667 39.5167 7.45 39.15C6.58333 38.7833 5.9 38.3167 5.4 37.75C4.83333 37.1167 4.43333 36.2833 4.2 35.25C3.96667 34.2167 3.85 32.8833 3.85 31.25V18.6C3.85 17.1 3.61667 16 3.15 15.3C2.71667 14.5667 1.88333 14.2 0.65 14.2V13.15C1.71667 13.25 2.75 13.3 3.75 13.3C5.15 13.3 6.45 13.25 7.65 13.15C8.88333 13.0167 10.0167 12.8333 11.05 12.6V33.3C11.05 34.1333 11.1167 34.8667 11.25 35.5C11.4167 36.1333 11.7167 36.6333 12.15 37C12.5833 37.3333 13.2167 37.5 14.05 37.5C14.95 37.5 15.75 37.25 16.45 36.75C17.1833 36.25 17.7667 35.5667 18.2 34.7C18.6667 33.8 18.9 32.8 18.9 31.7V18.6C18.9 17.1 18.6667 16 18.2 15.3C17.7667 14.5667 16.9333 14.2 15.7 14.2V13.15C16.7667 13.25 17.8 13.3 18.8 13.3C20.2 13.3 21.5 13.25 22.7 13.15C23.9333 13.0167 25.0667 12.8333 26.1 12.6ZM38.0223 0.249998C39.4223 0.249998 40.5223 0.599999 41.3223 1.3C42.1556 1.96667 42.5723 2.9 42.5723 4.1C42.5723 5.3 42.1556 6.25 41.3223 6.95C40.5223 7.61666 39.4223 7.95 38.0223 7.95C36.6223 7.95 35.5056 7.61666 34.6723 6.95C33.8723 6.25 33.4723 5.3 33.4723 4.1C33.4723 2.9 33.8723 1.96667 34.6723 1.3C35.5056 0.599999 36.6223 0.249998 38.0223 0.249998ZM41.9223 12.6V34.35C41.9223 35.75 42.1556 36.7 42.6223 37.2C43.1223 37.7 43.9556 37.95 45.1223 37.95V39C44.5223 38.9667 43.5889 38.9333 42.3223 38.9C41.0556 38.8333 39.7723 38.8 38.4723 38.8C37.1723 38.8 35.8556 38.8333 34.5223 38.9C33.1889 38.9333 32.1889 38.9667 31.5223 39V37.95C32.6889 37.95 33.5056 37.7 33.9723 37.2C34.4723 36.7 34.7223 35.75 34.7223 34.35V18.6C34.7223 17.1 34.4889 16 34.0223 15.3C33.5889 14.5667 32.7556 14.2 31.5223 14.2V13.15C32.5889 13.25 33.6223 13.3 34.6223 13.3C36.0223 13.3 37.3223 13.25 38.5223 13.15C39.7556 13.0167 40.8889 12.8333 41.9223 12.6Z" fill="#B69121"/>
</svg>
