<svg width="58" height="28" viewBox="0 0 58 28" fill="none" xmlns="http://www.w3.org/2000/svg">
<path d="M26.1 0.6V21.55C26.1 23.05 26.3333 24.1667 26.8 24.9C27.2667 25.6 28.1 25.95 29.3 25.95V27C28.2667 26.9 27.2333 26.85 26.2 26.85C24.8 26.85 23.5 26.9 22.3 27C21.1 27.1 19.9667 27.2833 18.9 27.55V23.05C18.1 24.7167 16.9833 25.9167 15.55 26.65C14.15 27.35 12.5833 27.7 10.85 27.7C9.45 27.7 8.31667 27.5167 7.45 27.15C6.58333 26.7833 5.9 26.3167 5.4 25.75C4.83333 25.1167 4.43333 24.2833 4.2 23.25C3.96667 22.2167 3.85 20.8833 3.85 19.25V6.6C3.85 5.1 3.61667 4 3.15 3.3C2.71667 2.56667 1.88333 2.2 0.65 2.2V1.15C1.71667 1.25 2.75 1.3 3.75 1.3C5.15 1.3 6.45 1.25 7.65 1.15C8.88333 1.01667 10.0167 0.833332 11.05 0.6V21.3C11.05 22.1333 11.1167 22.8667 11.25 23.5C11.4167 24.1333 11.7167 24.6333 12.15 25C12.5833 25.3333 13.2167 25.5 14.05 25.5C14.95 25.5 15.75 25.25 16.45 24.75C17.1833 24.25 17.7667 23.5667 18.2 22.7C18.6667 21.8 18.9 20.8 18.9 19.7V6.6C18.9 5.1 18.6667 4 18.2 3.3C17.7667 2.56667 16.9333 2.2 15.7 2.2V1.15C16.7667 1.25 17.8 1.3 18.8 1.3C20.2 1.3 21.5 1.25 22.7 1.15C23.9333 1.01667 25.0667 0.833332 26.1 0.6ZM42.6223 1.15V2.2C41.9556 2.2 41.4556 2.35 41.1223 2.65C40.8223 2.95 40.8389 3.36667 41.1723 3.9L54.3223 23.45C54.7223 24.05 55.1389 24.6 55.5723 25.1C56.0389 25.5667 56.5556 25.85 57.1223 25.95V27C56.6223 26.9667 55.8556 26.9333 54.8223 26.9C53.8223 26.8333 52.8056 26.8 51.7723 26.8C50.5723 26.8 49.3389 26.8333 48.0723 26.9C46.8056 26.9333 45.8723 26.9667 45.2723 27V25.95C45.9389 25.95 46.4223 25.8 46.7223 25.5C47.0556 25.2 47.0556 24.7833 46.7223 24.25L33.5723 4.7C33.0056 3.86667 32.5223 3.26667 32.1223 2.9C31.7556 2.5 31.3056 2.26667 30.7723 2.2V1.15C31.3389 1.18333 32.1889 1.23333 33.3223 1.3C34.4556 1.33333 35.5889 1.35 36.7223 1.35C37.8223 1.35 38.9389 1.33333 40.0723 1.3C41.2056 1.23333 42.0556 1.18333 42.6223 1.15ZM41.4723 14.95C41.4723 14.95 41.4889 15.05 41.5223 15.25C41.5889 15.45 41.6389 15.65 41.6723 15.85C41.7389 16.05 41.7723 16.15 41.7723 16.15L39.7723 18.7C38.7723 20 38.2223 21.2 38.1223 22.3C38.0223 23.3667 38.3056 24.2333 38.9723 24.9C39.6389 25.5333 40.5556 25.9 41.7223 26V27C41.0889 26.9667 40.3056 26.95 39.3723 26.95C38.4723 26.9167 37.5889 26.9 36.7223 26.9C35.8556 26.8667 35.1223 26.85 34.5223 26.85C33.7889 26.85 33.1389 26.8667 32.5723 26.9C32.0389 26.9 31.5223 26.9333 31.0223 27V26C31.7889 25.7 32.5223 25.2667 33.2223 24.7C33.9223 24.1 34.7056 23.25 35.5723 22.15L41.4723 14.95ZM55.6723 1.15V2.15C54.9723 2.35 54.2389 2.78333 53.4723 3.45C52.7056 4.11667 51.9056 4.96667 51.0723 6L45.5723 12.9C45.5723 12.9 45.5389 12.8167 45.4723 12.65C45.4389 12.45 45.3889 12.25 45.3223 12.05C45.2889 11.85 45.2723 11.75 45.2723 11.75L47.7723 8.4C48.6723 7.23333 49.2223 6.2 49.4223 5.3C49.6223 4.4 49.4723 3.66667 48.9723 3.1C48.5056 2.53333 47.6723 2.21667 46.4723 2.15V1.15C47.4389 1.18333 48.4223 1.21666 49.4223 1.25C50.4223 1.28333 51.3223 1.3 52.1223 1.3C52.8889 1.3 53.5556 1.28333 54.1223 1.25C54.6889 1.21666 55.2056 1.18333 55.6723 1.15Z" fill="#B69121"/>
</svg>
