<svg width="32" height="40" viewBox="0 0 32 40" fill="none" xmlns="http://www.w3.org/2000/svg">
<path d="M14.1104 0H20.6599V30.0184C17.3051 30.653 14.8355 30.9027 12.1633 30.9027C4.16401 30.8943 0 27.3206 0 20.4571C0 13.844 4.41688 9.55217 11.2614 9.55217C12.3235 9.55217 13.1326 9.63576 14.1104 9.88617V0ZM14.3399 15.2958C13.5728 15.0453 12.9407 14.9618 12.1315 14.9618C8.81889 14.9618 6.90548 16.9824 6.90548 20.5236C6.90548 23.9713 8.73468 25.875 12.0894 25.875C12.8142 25.875 13.4043 25.8341 14.3399 25.7089V15.2958Z" fill="#B69121"/>
<path d="M31.3706 10.3581V25.3879C31.3706 30.5639 30.9829 33.053 29.845 35.199C28.7828 37.2621 27.3837 38.5631 24.4925 40L18.415 37.1361C21.3062 35.7925 22.7054 34.6052 23.599 32.7933C24.5345 30.9405 24.8295 28.7945 24.8295 23.1501V10.3582L31.3706 10.3581ZM24.1695 0H30.719V6.65482H24.1695V0Z" fill="#B69121"/>
</svg>
