<svg width="27" height="40" viewBox="0 0 27 40" fill="none" xmlns="http://www.w3.org/2000/svg">
<path d="M13.3232 20.0076C13.3232 16.3327 16.3024 13.3384 19.9924 13.3384C23.6673 13.3384 26.6616 16.3176 26.6616 20.0076C26.6616 23.6824 23.6824 26.6768 19.9924 26.6768C16.3176 26.6768 13.3232 23.6824 13.3232 20.0076Z" fill="#B69121"/>
<path d="M0 33.3308C0 29.656 2.97921 26.6616 6.66919 26.6616H13.3384V33.3308C13.3384 37.0057 10.3592 40 6.66919 40C2.97921 40 0 37.0208 0 33.3308Z" fill="#B69121"/>
<path d="M13.3232 0.0151229V13.3384H19.9924C23.6673 13.3384 26.6616 10.3592 26.6616 6.66919C26.6616 2.99433 23.6824 0 19.9924 0H13.3232V0.0151229Z" fill="#B69121"/>
<path d="M0 6.68431C0 10.3592 2.97921 13.3535 6.66919 13.3535H13.3384V0.0151215H6.66919C2.97921 0.0151215 0 2.99433 0 6.68431Z" fill="#B69121"/>
<path d="M0 20.0076C0 23.6824 2.97921 26.6768 6.66919 26.6768H13.3384V13.3384H6.66919C2.97921 13.3384 0 16.3327 0 20.0076Z" fill="#B69121"/>
</svg>
