<svg width="41" height="40" viewBox="0 0 41 40" fill="none" xmlns="http://www.w3.org/2000/svg">
<g clip-path="url(#clip0_501_9)">
<path d="M19.9081 0.0112953C9.73838 0.0112953 10.3734 4.42149 10.3734 4.42149L10.3847 8.99059H20.0894V10.3624H6.53007C6.53007 10.3624 0.0224609 9.62431 0.0224609 19.8855C0.0224609 30.147 5.70246 29.7831 5.70246 29.7831H9.09226V25.0213C9.09226 25.0213 8.90952 19.3413 14.6816 19.3413H24.307C24.307 19.3413 29.7149 19.4287 29.7149 14.1148V5.32863C29.7149 5.32863 30.5362 0.0112953 19.9081 0.0112953ZM14.5569 3.08392C14.7862 3.08372 15.0133 3.12873 15.2253 3.2164C15.4372 3.30407 15.6297 3.43266 15.7919 3.59482C15.954 3.75698 16.0826 3.94953 16.1703 4.16144C16.258 4.37335 16.303 4.60047 16.3028 4.82981C16.303 5.05914 16.258 5.28626 16.1703 5.49817C16.0826 5.71008 15.954 5.90263 15.7919 6.06479C15.6297 6.22695 15.4372 6.35555 15.2253 6.44321C15.0133 6.53088 14.7862 6.57589 14.5569 6.57569C14.3276 6.57589 14.1004 6.53088 13.8885 6.44321C13.6766 6.35555 13.4841 6.22695 13.3219 6.06479C13.1597 5.90263 13.0312 5.71008 12.9435 5.49817C12.8558 5.28626 12.8108 5.05914 12.811 4.82981C12.8108 4.60047 12.8558 4.37335 12.9435 4.16144C13.0312 3.94953 13.1597 3.75698 13.3219 3.59482C13.4841 3.43266 13.6766 3.30407 13.8885 3.2164C14.1004 3.12873 14.3276 3.08372 14.5569 3.08392Z" fill="#B69121"/>
<path d="M20.1976 39.8629C30.3673 39.8629 29.7323 35.4527 29.7323 35.4527L29.721 30.8838H20.0161V29.512H33.5755C33.5755 29.512 40.0831 30.25 40.0831 19.9885C40.0831 9.72721 34.4031 10.0911 34.4031 10.0911H31.0133V14.8527C31.0133 14.8527 31.196 20.5327 25.4239 20.5327H15.7985C15.7985 20.5327 10.3907 20.4453 10.3907 25.7594V34.5457C10.3907 34.5457 9.56951 39.8629 20.1974 39.8629H20.1976ZM25.5488 36.7906C25.3195 36.7908 25.0924 36.7458 24.8804 36.6581C24.6685 36.5704 24.476 36.4419 24.3138 36.2797C24.1517 36.1175 24.0231 35.925 23.9354 35.7131C23.8477 35.5012 23.8027 35.274 23.8029 35.0447C23.8027 34.8154 23.8477 34.5882 23.9354 34.3763C24.023 34.1644 24.1516 33.9718 24.3138 33.8096C24.4759 33.6474 24.6685 33.5188 24.8804 33.4312C25.0923 33.3435 25.3195 33.2985 25.5488 33.2987C25.7781 33.2985 26.0053 33.3435 26.2172 33.4311C26.4291 33.5188 26.6216 33.6474 26.7838 33.8096C26.946 33.9717 27.0745 34.1643 27.1622 34.3762C27.2499 34.5881 27.2949 34.8152 27.2947 35.0445C27.2949 35.2739 27.2499 35.501 27.1622 35.7129C27.0745 35.9248 26.946 36.1174 26.7838 36.2795C26.6216 36.4417 26.4291 36.5703 26.2172 36.658C26.0053 36.7456 25.7781 36.7908 25.5488 36.7906Z" fill="#B69121"/>
</g>
<defs>
<clipPath id="clip0_501_9">
<rect width="40.1606" height="40" fill="white"/>
</clipPath>
</defs>
</svg>
